<svg width="16" height="16" viewBox="0 0 16 16" fill="none" xmlns="http://www.w3.org/2000/svg">
<path fill-rule="evenodd" clip-rule="evenodd" d="M4.23731 2.66669H11.9172C12.1007 2.66669 12.2697 2.76739 12.3613 2.93101L14.5985 6.93841C14.7144 7.14628 14.6801 7.40862 14.5146 7.57696L8.35615 13.8477C8.15638 14.0508 7.83552 14.0508 7.63622 13.8477L1.48537 7.58542C1.31636 7.41285 1.28441 7.14305 1.40909 6.93418L3.80082 2.91858C3.89403 2.76242 4.05923 2.66669 4.23731 2.66669Z" fill="#AAAAAA"/>
<path d="M10.3841 10.074H9.01866L8.00393 8.37704L6.92205 10.074H5.61633L7.34734 7.53201L5.71333 5.10083H7.04889L8.00393 6.70776L8.98135 5.10083H10.2721L8.63813 7.49045L10.3841 10.074Z" fill="white"/>
<rect width="2.38387" height="1.2433" transform="matrix(1 0 0 -1 6.80835 8.83075)" fill="#AAAAAA"/>
<path d="M11.4936 7.58741C11.1439 7.96774 9.71277 8.25238 8.00036 8.25238C6.28795 8.25238 4.85634 7.96774 4.50609 7.58741C4.80307 7.26484 5.87771 7.0108 7.24136 6.94129L7.24161 6.34412C5.63699 6.42611 4.4334 6.76336 4.42444 7.16694V8.00837C4.4334 8.41195 5.63699 8.74872 7.24161 8.83071H8.75836C10.363 8.74848 11.5671 8.41195 11.576 8.00837V7.16694C11.5671 6.76336 10.363 6.42611 8.75836 6.34412V6.94129C10.1225 7.0108 11.1967 7.26484 11.4936 7.58741Z" fill="white"/>
</svg>
