<svg width="24" height="24" viewBox="0 0 24 24" fill="none" xmlns="http://www.w3.org/2000/svg">
<g clip-path="url(#clip0_189_5623)">
<path d="M12 24C18.6274 24 24 18.6274 24 12C24 5.37258 18.6274 0 12 0C5.37258 0 0 5.37258 0 12C0 18.6274 5.37258 24 12 24Z" fill="#009393"/>
<path fill-rule="evenodd" clip-rule="evenodd" d="M12.0147 12.8577C14.0784 12.8577 15.8031 12.5088 16.2246 12.0426C15.8667 11.6472 14.5722 11.3358 12.9282 11.2506V12.2355C12.6339 12.2508 12.3279 12.2583 12.0144 12.2583C11.7009 12.2583 11.3949 12.2508 11.1 12.2355V11.2506C9.45663 11.3358 8.16153 11.6472 7.80363 12.0426C8.22573 12.5088 9.95073 12.8577 12.0144 12.8577H12.0147ZM15.6813 8.22179V9.57809H12.9282V10.5186C14.862 10.6191 16.3131 11.0325 16.3239 11.5272V12.5586C16.3131 13.0533 14.862 13.4658 12.9282 13.5666V15.8748H11.1003V13.5666C9.16653 13.4661 7.71603 13.0533 7.70523 12.5586V11.5272C7.71603 11.0325 9.16653 10.6191 11.1003 10.5186V9.57809H8.34723V8.22179H15.6816H15.6813ZM7.26453 6.06329H16.9293C17.1603 6.06329 17.373 6.18479 17.4882 6.38219L20.3037 11.217C20.4495 11.4678 20.4063 11.7843 20.1981 11.9874L12.4479 19.5528C12.1965 19.7979 11.7927 19.7979 11.5419 19.5528L3.80133 11.9976C3.58863 11.7894 3.54843 11.4639 3.70533 11.2119L6.71523 6.36719C6.83253 6.17879 7.04073 6.06359 7.26483 6.06359L7.26453 6.06329Z" fill="white"/>
</g>
<defs>
<clipPath id="clip0_189_5623">
<rect width="24" height="24" fill="white"/>
</clipPath>
</defs>
</svg>
