<svg width="12" height="12" viewBox="0 0 12 12" fill="none" xmlns="http://www.w3.org/2000/svg">
<g clip-path="url(#clip0_12_3381)">
<g clip-path="url(#clip1_12_3381)">
<path d="M5.99999 10.8595C8.68385 10.8595 10.8595 8.68385 10.8595 5.99999C10.8595 3.31614 8.68385 1.14044 5.99999 1.14044C3.31614 1.14044 1.14044 3.31614 1.14044 5.99999C1.14044 8.68385 3.31614 10.8595 5.99999 10.8595Z" fill="white"/>
<path d="M6.00003 11.1111C3.18093 11.1111 0.888916 8.81909 0.888916 6C0.888916 3.1809 3.18093 0.888885 6.00003 0.888885C8.81912 0.888885 11.1111 3.1809 11.1111 6C11.1111 8.81909 8.81912 11.1111 6.00003 11.1111ZM6.00003 1.38802C3.45645 1.38802 1.38805 3.45642 1.38805 6C1.38805 8.54357 3.45645 10.612 6.00003 10.612C8.5436 10.612 10.612 8.54357 10.612 6C10.612 3.45642 8.5436 1.38802 6.00003 1.38802Z" fill="#040000"/>
<path d="M3.56026 5.0856C3.3646 5.42102 3.26477 5.78838 3.26477 6.1797C3.26477 6.57102 3.3606 6.95435 3.55626 7.28977C3.75192 7.62119 4.02345 7.88474 4.35887 8.0804C4.69428 8.27206 5.06165 8.37189 5.45696 8.37189C5.85227 8.37189 6.21564 8.27606 6.55106 8.0804C6.89047 7.88474 7.16199 7.61321 7.35765 7.27779C7.55331 6.94237 7.65314 6.57501 7.65314 6.1797C7.65314 5.78439 7.54932 5.42102 7.34967 5.0896C7.15401 4.75418 6.88248 4.48265 6.54706 4.28699C6.21165 4.08734 5.84428 3.98352 5.45297 3.98352C5.06165 3.98352 4.69029 4.08734 4.35487 4.28699C4.02345 4.48265 3.75592 4.75418 3.56026 5.0896V5.0856ZM4.60644 4.69029C4.86199 4.53456 5.1455 4.4547 5.45297 4.4547C5.76043 4.4547 6.04394 4.53057 6.29949 4.6863C6.55505 4.83803 6.75869 5.04967 6.91043 5.31321C7.06217 5.57675 7.13404 5.86824 7.13404 6.17571C7.13404 6.48317 7.05817 6.77467 6.91043 7.03821C6.76668 7.29776 6.56303 7.50939 6.30748 7.66112C6.05592 7.80887 5.77241 7.88474 5.46494 7.88474C5.15748 7.88474 4.87397 7.80887 4.61043 7.65314C4.35487 7.5014 4.15123 7.28977 3.99949 7.03022C3.85175 6.77067 3.77588 6.48317 3.77588 6.1797C3.77588 5.87623 3.84776 5.58074 3.99151 5.3172C4.13925 5.05366 4.34689 4.84203 4.60244 4.69029H4.60644Z" fill="#BF1A20"/>
<path d="M4.51059 6.90645C4.51059 7.2818 4.41875 7.5693 4.23107 7.76496C4.05937 7.95663 3.82378 8.06843 3.53229 8.09239V8.57555C3.80781 8.56357 4.05538 8.4917 4.271 8.36392C4.5026 8.23614 4.68229 8.04447 4.81007 7.8009C4.93784 7.55732 5.00573 7.26183 5.00573 6.92642V3.38058H4.50659V6.90645H4.51059Z" fill="#040000"/>
<path d="M8.55555 7.57726C8.26805 7.78091 7.92864 7.88872 7.5493 7.88872C7.16996 7.88872 6.93037 7.81684 6.67881 7.6691C6.43124 7.52136 6.23558 7.31372 6.09982 7.05018C5.96805 6.79063 5.90017 6.49514 5.90017 6.1757C5.90017 5.85625 5.97204 5.57275 6.11978 5.3132C6.26753 5.04966 6.46718 4.83802 6.71076 4.68629C6.95833 4.53455 7.23385 4.45469 7.52135 4.45469C7.80885 4.45469 8.18819 4.5625 8.51162 4.77014L8.71128 4.30296C8.55155 4.21112 8.37586 4.13125 8.1802 4.07136C7.97256 4.00747 7.74496 3.97552 7.50138 3.97552C7.09409 3.97552 6.72673 4.07136 6.40329 4.26702C6.08385 4.45469 5.83228 4.72223 5.6486 5.06164C5.46892 5.39705 5.37708 5.78039 5.37708 6.20365C5.37708 6.62691 5.46892 6.96233 5.64461 7.28976C5.8243 7.61719 6.08385 7.88073 6.41527 8.0724C6.75069 8.26407 7.14201 8.36389 7.58124 8.36389C8.02048 8.36389 8.06041 8.32796 8.26805 8.25209C8.46371 8.18021 8.63142 8.10035 8.76718 8.0165L8.55954 7.57327L8.55555 7.57726Z" fill="#040000"/>
<mask id="mask0_12_3381" style="mask-type:luminance" maskUnits="userSpaceOnUse" x="3" y="3" width="5" height="6">
<path d="M3.20068 3.91562V8.43176H7.71683V3.91562H3.20068ZM6.56284 8.10433C6.54686 8.11232 6.53089 8.1243 6.51492 8.13228C6.47898 8.11631 6.44704 8.09635 6.41509 8.07638C6.26336 7.98854 6.12759 7.88472 6.0078 7.76892C6.10763 7.73298 6.20346 7.68906 6.2953 7.63715C6.3552 7.60121 6.4111 7.56128 6.471 7.51735C6.53888 7.57326 6.60676 7.62517 6.68263 7.66909C6.77447 7.721 6.87429 7.76492 6.97811 7.80086C6.85433 7.91666 6.71457 8.02048 6.56683 8.10433H6.56284Z" fill="white"/>
</mask>
<g mask="url(#mask0_12_3381)">
<path d="M3.56013 5.0856C3.36447 5.42102 3.26465 5.78838 3.26465 6.1797C3.26465 6.57102 3.36048 6.95435 3.55614 7.28977C3.7518 7.62119 4.02333 7.88474 4.35875 8.0804C4.69416 8.27206 5.06152 8.37189 5.45684 8.37189C5.85215 8.37189 6.21552 8.27606 6.55093 8.0804C6.89034 7.88474 7.16187 7.61321 7.35753 7.27779C7.55319 6.94237 7.65302 6.57501 7.65302 6.1797C7.65302 5.78439 7.5492 5.42102 7.34954 5.0896C7.15388 4.75418 6.88236 4.48265 6.54694 4.28699C6.21152 4.08734 5.84416 3.98352 5.45284 3.98352C5.06152 3.98352 4.69017 4.08734 4.35475 4.28699C4.02333 4.48265 3.75579 4.75418 3.56013 5.0896V5.0856ZM4.60632 4.69029C4.86187 4.53456 5.14538 4.4547 5.45284 4.4547C5.76031 4.4547 6.04382 4.53057 6.29937 4.6863C6.55493 4.83803 6.75857 5.04967 6.91031 5.31321C7.06204 5.57675 7.13392 5.86824 7.13392 6.17571C7.13392 6.48317 7.05805 6.77467 6.91031 7.03821C6.76656 7.29776 6.56291 7.50939 6.30736 7.66112C6.05579 7.80887 5.77229 7.88474 5.46482 7.88474C5.15736 7.88474 4.87385 7.80887 4.61031 7.65314C4.35475 7.5014 4.15111 7.28977 3.99937 7.03022C3.85163 6.77067 3.77576 6.48317 3.77576 6.1797C3.77576 5.87623 3.84763 5.58074 3.99138 5.3172C4.13913 5.05366 4.34677 4.84203 4.60232 4.69029H4.60632Z" fill="#BF1A20"/>
</g>
<mask id="mask1_12_3381" style="mask-type:luminance" maskUnits="userSpaceOnUse" x="3" y="3" width="3" height="6">
<path d="M3.47241 3.32065V8.6394H5.07363V3.32065H3.47241ZM4.84203 7.81683C4.76616 7.95659 4.67432 8.08436 4.56651 8.18818C4.49463 8.15624 4.42276 8.1203 4.35488 8.08037C4.25106 8.02047 4.15522 7.95259 4.06338 7.88072C4.11529 7.84079 4.1672 7.79686 4.21113 7.74895C4.27901 7.67707 4.33491 7.58922 4.37884 7.4894C4.45071 7.55329 4.53057 7.60919 4.61842 7.6611C4.69828 7.70902 4.78213 7.74895 4.86599 7.78089C4.858 7.79287 4.85401 7.80485 4.84602 7.82082L4.84203 7.81683Z" fill="white"/>
</mask>
<g mask="url(#mask1_12_3381)">
<path d="M4.51059 6.90642C4.51059 7.28177 4.41875 7.56927 4.23107 7.76493C4.05937 7.9566 3.82378 8.0684 3.53229 8.09236V8.57552C3.80781 8.56354 4.05538 8.49167 4.271 8.36389C4.5026 8.23611 4.68229 8.04444 4.81007 7.80087C4.93784 7.55729 5.00573 7.2618 5.00573 6.92639V3.38055H4.50659V6.90642H4.51059Z" fill="#040000"/>
</g>
</g>
</g>
<defs>
<clipPath id="clip0_12_3381">
<rect width="10.2222" height="10.2222" fill="white" transform="translate(0.888916 0.888885)"/>
</clipPath>
<clipPath id="clip1_12_3381">
<rect width="10.2222" height="10.2222" fill="white" transform="translate(0.888916 0.888885)"/>
</clipPath>
</defs>
</svg>
