<svg width="16" height="16" viewBox="0 0 16 16" fill="none" xmlns="http://www.w3.org/2000/svg">
<path d="M8.00004 14.6666C11.6819 14.6666 14.6667 11.6819 14.6667 7.99998C14.6667 4.31808 11.6819 1.33331 8.00004 1.33331C4.31814 1.33331 1.33337 4.31808 1.33337 7.99998C1.33337 11.6819 4.31814 14.6666 8.00004 14.6666Z" fill="white"/>
<path fill-rule="evenodd" clip-rule="evenodd" d="M7.99997 14.6666C11.6958 14.6666 14.6667 11.6957 14.6667 7.99991C14.6667 4.30413 11.6958 1.33331 7.99997 1.33331C4.30419 1.33331 1.33337 4.30413 1.33337 7.99991C1.33337 11.6957 4.30419 14.6666 7.99997 14.6666ZM5.19479 11.1293C5.59765 11.4986 6.06965 11.7845 6.58357 11.9703C6.66697 12.0286 6.75031 12.137 6.75031 12.2204V12.612C6.75031 12.6662 6.75031 12.6954 6.72111 12.7204C6.69617 12.8328 6.58357 12.887 6.47109 12.8328C5.45999 12.511 4.57743 11.876 3.95114 11.0194C3.32485 10.1629 2.98728 9.12938 2.98728 8.06831C2.98728 7.00718 3.32485 5.97361 3.95114 5.11707C4.57743 4.26054 5.45999 3.62545 6.47109 3.3037C6.50025 3.27869 6.5544 3.27869 6.58357 3.27869C6.69617 3.3037 6.75031 3.38703 6.75031 3.49953V3.88703C6.75031 4.02869 6.69617 4.11203 6.58357 4.16619C5.44611 4.58286 4.52945 5.47036 4.11278 6.63699C3.92225 7.14925 3.8351 7.69418 3.85633 8.24025C3.87757 8.78638 4.00678 9.32285 4.23651 9.81865C4.46624 10.3146 4.79195 10.76 5.19479 11.1293ZM9.27944 3.41619C9.30444 3.3037 9.41691 3.24953 9.52937 3.3037C10.2932 3.55194 10.9866 3.97902 11.5518 4.54941C12.1172 5.11977 12.538 5.81695 12.7794 6.58284C13.6127 9.22038 12.1669 12.0286 9.52937 12.862C9.50024 12.887 9.44611 12.887 9.41691 12.887C9.30444 12.862 9.25024 12.7787 9.25024 12.6662V12.2787C9.25024 12.137 9.30444 12.0537 9.41691 11.9994C10.5544 11.5828 11.4711 10.6953 11.8878 9.52865C12.0782 9.01651 12.1654 8.47158 12.1442 7.92545C12.123 7.37938 11.9938 6.84291 11.764 6.34698C11.5343 5.85112 11.2086 5.40567 10.8057 5.03636C10.4029 4.66705 9.93091 4.38122 9.41691 4.19536C9.33357 4.13703 9.25024 4.02869 9.25024 3.9162V3.5287C9.25024 3.47037 9.25024 3.44536 9.27944 3.41619Z" fill="#2775CA"/>
<path d="M10.5 10.5H9.06807L8.00391 8.79387L6.86933 10.5H5.5L7.31534 7.94429L5.60172 5.5H7.00235L8.00391 7.1156L9.02895 5.5H10.3826L8.66901 7.90251L10.5 10.5Z" fill="white"/>
</svg>
